<?xml version="1.0" encoding="utf-8"?>
<!-- Generator: Adobe Illustrator 23.0.1, SVG Export Plug-In . SVG Version: 6.00 Build 0)  -->
<svg version="1.1" id="Capa_1" xmlns="http://www.w3.org/2000/svg" xmlns:xlink="http://www.w3.org/1999/xlink" x="0px" y="0px"
	 viewBox="0 0 247.1 148.2" style="enable-background:new 0 0 247.1 148.2;" xml:space="preserve">
<style type="text/css">
	.st0{fill:#009BDB;}
	.st1{fill:#0071B6;}
	.st2{fill:#DB9600;}
	.st3{fill:#FFFFFF;}
	.st4{clip-path:url(#SVGID_2_);}
	.st5{opacity:0.15;}
	.st6{fill:#87868A;}
</style>
<title>Logo-012</title>
<path class="st0" d="M237.7,41.5c-3-3.9-7.1-6.8-11.9-8.2l-96-27.6c-4.1-1.2-8.5-1.2-12.6,0l-96,27.6C11.5,36.2,4.8,45.1,4.8,55.2
	V93c0,10.1,6.7,19.1,16.5,21.9l96,27.6c4.1,1.2,8.5,1.2,12.6,0l96-27.6c9.7-2.8,16.4-11.7,16.4-21.9V55.2
	C242.3,50.3,240.7,45.5,237.7,41.5 M238.4,93c0,8.4-5.6,15.8-13.6,18.1l-96,27.6c-1.7,0.5-3.5,0.7-5.2,0.7c-1.8,0-3.5-0.2-5.2-0.7
	l-96-27.6c-8.1-2.3-13.6-9.7-13.6-18.1V55.2c0-8.4,5.6-15.8,13.6-18.1l96-27.6c3.4-1,7-1,10.4,0l96,27.6c8.1,2.3,13.6,9.7,13.6,18.1
	L238.4,93L238.4,93z"/>
<path class="st1" d="M245.7,46.4c-2.9-8.6-9.8-15.2-18.5-17.7l-96-27.6c-5-1.4-10.3-1.4-15.3,0L20,28.7c-5.8,1.6-10.8,5.1-14.4,9.9
	C1.9,43.4,0,49.2,0,55.2V93c0,12.3,8.2,23.1,20,26.5l96,27.6c2.5,0.7,5.1,1.1,7.6,1.1c2.6,0,5.2-0.4,7.6-1.1l96-27.6
	c2.9-0.8,5.6-2.1,8.1-3.8c2.4-1.7,4.5-3.7,6.3-6.1c3.6-4.8,5.5-10.6,5.5-16.6V55.2C247.1,52.2,246.6,49.2,245.7,46.4 M242.3,93
	c0,10.1-6.7,19.1-16.5,21.9l-96,27.6c-4.1,1.2-8.5,1.2-12.6,0l-96-27.6C11.5,112.1,4.8,103.1,4.8,93V55.2c0-2.5,0.4-4.9,1.2-7.3
	c1.6-4.6,4.6-8.6,8.6-11.4c2-1.4,4.3-2.5,6.7-3.2l96-27.6c4.1-1.2,8.5-1.2,12.6,0l96,27.6c9.8,2.8,16.5,11.7,16.5,21.9L242.3,93z"/>
<path class="st2" d="M224.8,37.1l-96-27.6c-3.4-1-7-1-10.4,0l-96,27.6c-8.1,2.3-13.6,9.7-13.6,18.1V93c0,8.4,5.6,15.8,13.6,18.1
	l96,27.6c1.7,0.5,3.4,0.7,5.2,0.7c1.8,0,3.5-0.2,5.2-0.7l96-27.6c8.1-2.3,13.6-9.7,13.6-18.1V55.2C238.4,46.8,232.8,39.4,224.8,37.1
	 M236.4,93c0,7.5-5,14.1-12.2,16.2l-96,27.6c-3.1,0.9-6.3,0.9-9.3,0l-96-27.6c-7.2-2.1-12.1-8.7-12.2-16.2V55.2
	c0-7.5,5-14.1,12.2-16.2l96-27.6c3.1-0.9,6.3-0.9,9.3,0l96,27.7c7.2,2.1,12.2,8.7,12.2,16.2L236.4,93L236.4,93z"/>
<path class="st3" d="M236.4,93c0,7.5-5,14.1-12.2,16.2l-96,27.6c-3.1,0.9-6.3,0.9-9.3,0l-96-27.6c-7.2-2.1-12.1-8.7-12.2-16.2V55.2
	c0-7.5,5-14.1,12.2-16.2l96-27.6c3.1-0.9,6.3-0.9,9.3,0l96,27.7c7.2,2.1,12.2,8.7,12.2,16.2L236.4,93L236.4,93z"/>
<g>
	<defs>
		<path id="SVGID_1_" d="M118.9,11.4L22.9,39c-7.2,2.1-12.2,8.7-12.2,16.2V93c0,7.5,5,14.1,12.2,16.2l96,27.6c3.1,0.9,6.3,0.9,9.3,0
			l96-27.6c7.2-2.1,12.1-8.7,12.2-16.2V55.2c0-7.5-5-14.1-12.2-16.2l-96-27.6c-1.5-0.4-3.1-0.7-4.7-0.7
			C122,10.7,120.4,10.9,118.9,11.4"/>
	</defs>
	<clipPath id="SVGID_2_">
		<use xlink:href="#SVGID_1_"  style="overflow:visible;"/>
	</clipPath>
	<g class="st4">
		<g class="st5">
			<g>
				<defs>
					<rect id="SVGID_3_" x="-139.2" y="-73.1" width="525.5" height="295.6"/>
				</defs>
				<clipPath id="SVGID_4_">
					<use xlink:href="#SVGID_3_"  style="overflow:visible;"/>
				</clipPath>
			</g>
		</g>
		<path class="st0" d="M163.7,98.3h-1.2V85.2h1.2V98.3z"/>
		<path class="st0" d="M170.8,98.3h-1.2v-8.6c-0.1-0.1-0.3-0.1-0.4-0.1c-0.2,0-0.5,0.1-0.7,0.2c-0.2,0.1-0.3,0.3-0.3,0.6v7.9h-1.2
			v-8.5c-0.1-0.1-0.3-0.1-0.5-0.1c-0.2,0-0.4,0.1-0.6,0.2c-0.2,0.1-0.2,0.3-0.2,0.5v7.9h-1.1v-9.7h1.1v0.5c0.3-0.3,0.8-0.5,1.2-0.5
			c0.5,0,0.9,0.2,1.2,0.6c0.4-0.4,0.9-0.7,1.5-0.6c0.3,0,0.6,0.1,0.8,0.2c0.2,0.2,0.3,0.5,0.3,0.8L170.8,98.3L170.8,98.3z"/>
		<path class="st0" d="M175.2,97c0,0.4-0.1,0.7-0.4,1c-0.2,0.3-0.6,0.4-0.9,0.4c-0.5,0-0.9-0.3-1.1-0.7v3.5h-1.2V88.6h1.2v0.6
			c0.1-0.2,0.3-0.3,0.5-0.4c0.2-0.1,0.4-0.1,0.6-0.1c0.4,0,0.7,0.1,1,0.4c0.3,0.3,0.4,0.6,0.4,1L175.2,97L175.2,97z M174.1,97v-6.8
			c0-0.1-0.1-0.2-0.2-0.3c-0.1-0.1-0.3-0.1-0.4-0.1c-0.1,0-0.3,0-0.4,0.1c-0.1,0.1-0.2,0.2-0.3,0.3v6.6c0.1,0.2,0.3,0.3,0.4,0.4
			c0.2,0.1,0.3,0.2,0.5,0.2C174,97.3,174.1,97.2,174.1,97z"/>
		<path class="st0" d="M178.6,89.9c-0.2-0.1-0.4-0.1-0.6-0.1c-0.5,0-0.9,0.3-1,0.8v7.8h-1v-9.7h1v0.6c0.2-0.1,0.3-0.3,0.5-0.4
			c0.2-0.1,0.4-0.1,0.6-0.2h0.2l0.3,0.1L178.6,89.9L178.6,89.9z"/>
		<path class="st0" d="M182.7,93.8h-2.4v3c0,0.2,0.1,0.3,0.2,0.4c0.1,0.1,0.3,0.2,0.4,0.2c0.2,0,0.3-0.1,0.4-0.2
			c0.1-0.1,0.1-0.3,0.1-0.4V95h1.1v1.6c0.1,0.5-0.1,1.1-0.4,1.5c-0.3,0.3-0.8,0.5-1.3,0.4c-0.5,0.1-1.1-0.2-1.4-0.6
			c-0.3-0.4-0.4-0.8-0.4-1.3v-6.3c0-0.5,0.2-0.9,0.5-1.2c0.4-0.3,0.9-0.5,1.4-0.4c0.9-0.1,1.6,0.6,1.7,1.5c0,0.1,0,0.1,0,0.2V93.8z
			 M181.5,92.7v-2.3c0-0.2,0-0.4-0.1-0.5c-0.1-0.2-0.3-0.2-0.4-0.2c-0.2,0-0.3,0.1-0.4,0.2c-0.1,0.1-0.2,0.3-0.2,0.5v2.3H181.5z"/>
		<path class="st0" d="M186.9,96c0,0.1,0,0.2,0,0.3c0,0.5-0.2,1-0.5,1.4c-0.3,0.4-0.7,0.6-1.1,0.6c-0.8,0-1.4-0.2-1.6-0.6
			c-0.3-0.5-0.4-1.1-0.4-1.7v-0.6h1.1c0,0.1,0,0.1,0,0.2v0.5c0,0.3,0,0.6,0.1,0.8c0.1,0.2,0.3,0.3,0.6,0.3c0.2,0,0.5-0.1,0.5-0.3
			c0.1-0.3,0.2-0.6,0.2-0.9c0-0.6-0.2-1.2-0.6-1.7c-0.4-0.5-0.8-1.1-1.2-1.8c-0.2-0.3-0.3-0.6-0.4-0.9c-0.1-0.2-0.2-0.5-0.3-0.8
			c0-0.1,0-0.3,0-0.4c0-0.5,0.2-1.1,0.5-1.5c0.3-0.4,0.8-0.7,1.3-0.6c0.5,0,1,0.2,1.3,0.6c0.3,0.5,0.4,1,0.4,1.6v0.7h-1.2
			c0-0.1,0.1-0.2,0.1-0.4c0-0.2,0-0.3,0-0.5c0-0.2,0-0.5-0.1-0.7c-0.1-0.2-0.3-0.3-0.6-0.3c-0.2,0-0.4,0.1-0.6,0.3
			c-0.1,0.2-0.2,0.4-0.2,0.7c0.1,0.5,0.3,1,0.6,1.4c0.3,0.5,0.8,1.2,1.3,2C186.6,94.6,186.8,95.3,186.9,96z"/>
		<path class="st0" d="M189.1,86.4H188v-1.2h1.1V86.4z M189.1,98.3H188v-9.7h1.1V98.3z"/>
		<path class="st0" d="M193.6,96.5c0,0.5-0.1,1.1-0.5,1.5c-0.3,0.3-0.7,0.5-1.2,0.5c-0.5,0-0.9-0.2-1.2-0.5
			c-0.4-0.4-0.5-0.9-0.5-1.5v-5.8c0-0.5,0.1-1.1,0.5-1.5c0.6-0.7,1.6-0.7,2.3-0.1c0,0,0.1,0.1,0.1,0.1c0.4,0.4,0.5,1,0.5,1.5V96.5z
			 M194.2,85.3l-2.1,3h-1.2l1.7-3H194.2z M192.4,96.5v-5.8c0-0.3,0-0.5-0.2-0.8c-0.1-0.2-0.3-0.3-0.4-0.3c-0.4,0-0.6,0.3-0.6,1v5.8
			c0,0.3,0,0.5,0.2,0.7c0.1,0.2,0.4,0.3,0.7,0.2c0.1,0,0.2-0.1,0.2-0.2C192.4,97,192.5,96.7,192.4,96.5z"/>
		<path class="st0" d="M197.7,98.3h-1.1v-8.5c-0.1-0.1-0.3-0.2-0.5-0.2c-0.2,0-0.4,0.1-0.5,0.2c-0.2,0.1-0.2,0.3-0.2,0.5v8h-1.2
			v-9.7h1.2v0.6c0.3-0.4,0.7-0.6,1.2-0.6c0.6,0,1.1,0.4,1.2,1V98.3z"/>
		<path class="st0" d="M206.1,98.3H205V98c-0.2,0.1-0.4,0.2-0.6,0.3c-0.2,0.1-0.4,0.1-0.6,0.1c-0.3,0-0.7-0.1-0.9-0.3
			c-0.2-0.2-0.4-0.4-0.4-0.7v-7.4c0-0.3,0.2-0.6,0.4-0.8c0.2-0.2,0.6-0.4,0.9-0.3c0.2,0,0.4,0,0.6,0.1c0.2,0.1,0.4,0.3,0.6,0.4v-4.1
			h1.1L206.1,98.3z M205,96.5v-5.7c0-0.2-0.1-0.4-0.3-0.5c-0.2-0.2-0.4-0.2-0.6-0.3c-0.2,0-0.5,0.2-0.6,0.4v6.2c0,0.2,0,0.3,0.2,0.4
			c0.1,0.1,0.3,0.1,0.4,0.1c0.2,0,0.4-0.1,0.6-0.2C204.9,96.9,205,96.7,205,96.5z"/>
		<path class="st0" d="M208.1,86.4h-1.1v-1.2h1.1V86.4z M208.1,98.3h-1.1v-9.7h1.1V98.3z"/>
		<path class="st0" d="M212.5,98.9c0,1.3-1,2.4-2.3,2.4c0,0,0,0-0.1,0c-0.3,0-0.6-0.1-0.9-0.2l0.2-0.9c0.1,0,0.3,0,0.4,0
			c0.4,0,0.8-0.2,1.1-0.5c0.3-0.3,0.5-0.7,0.5-1.1v-1c-0.3,0.4-0.7,0.6-1.1,0.6c-0.3,0-0.7-0.1-0.9-0.3c-0.3-0.2-0.4-0.6-0.4-0.9v-7
			c0-0.4,0.1-0.8,0.4-1c0.3-0.2,0.6-0.4,1-0.4c0.4,0,0.8,0.2,1,0.4v-0.4h1.2L212.5,98.9L212.5,98.9z M211.3,96.7v-6.6
			c-0.1-0.1-0.2-0.2-0.3-0.3c-0.1-0.1-0.2-0.1-0.4-0.1c-0.1,0-0.3,0-0.4,0.1c-0.1,0.1-0.2,0.2-0.2,0.3V97c0,0.1,0.1,0.3,0.2,0.3
			c0,0,0,0,0.1,0c0.2,0,0.3-0.1,0.5-0.2C211,97,211.2,96.9,211.3,96.7z"/>
		<path class="st0" d="M214.6,86.4h-1.1v-1.2h1.1V86.4z M214.6,98.3h-1.1v-9.7h1.1V98.3z"/>
		<path class="st0" d="M218,89.8h-0.8v8.5H216v-8.5h-0.7v-1.2h0.7v-3.4h1.2v3.4h0.8V89.8z"/>
		<path class="st0" d="M222.5,98.3h-1.4c-0.1-0.1-0.1-0.2-0.2-0.3c-0.3,0.2-0.6,0.4-1,0.4c-0.5,0-0.9-0.3-1.1-0.7
			c-0.3-0.5-0.4-1.1-0.4-1.7c0-0.4,0-0.8,0.1-1.1c0.1-0.4,0.3-0.8,0.4-1.1c0.2-0.4,0.5-0.7,0.9-1c0.4-0.3,0.8-0.5,1.3-0.7v-1.3
			c0-0.3-0.1-0.6-0.2-0.8c-0.1-0.3-0.3-0.5-0.6-0.4c-0.2,0-0.4,0.2-0.4,0.4c-0.1,0.2-0.2,0.5-0.1,0.8v0.9h-1.1v-1
			c0-0.6,0.2-1.1,0.6-1.5c0.3-0.3,0.8-0.5,1.3-0.5c0.5,0,1,0.2,1.2,0.6c0.3,0.5,0.4,1,0.4,1.6V97c0,0.2,0,0.4,0.1,0.6
			C222.4,97.8,222.5,98.1,222.5,98.3z M221.1,96.8v-3.5c-0.2-0.1-0.5,0.1-1,0.6c-0.5,0.5-0.7,1.2-0.7,1.9c0,0.3,0,0.4,0,0.6
			c0,0.2,0.1,0.3,0.1,0.5c0,0.2,0.1,0.3,0.3,0.4c0.1,0.1,0.3,0.1,0.5,0.1C220.7,97.5,221.1,97.2,221.1,96.8
			C221.1,96.8,221.1,96.8,221.1,96.8z"/>
		<path class="st0" d="M224.5,98.3h-1.1V85.2h1.1V98.3z"/>
		<path class="st6" d="M43.4,63.1c-1.1-1.1-2.5-2-3.9-2.7c-3.1-1.3-6.5-1.3-9.6,0c-1.5,0.6-2.8,1.5-3.9,2.7c-1.1,1.1-2,2.5-2.6,3.9
			c-0.7,1.5-1,3.2-1,4.8v22.3h4.9v-9.9h7.5c1.7,0,3.3-0.3,4.8-1c3-1.3,5.4-3.7,6.6-6.6c1.3-3.1,1.3-6.5,0-9.6
			C45.4,65.5,44.5,64.2,43.4,63.1 M41.5,74.7c-0.7,1.8-2.2,3.3-4,4c-0.9,0.4-1.9,0.6-2.9,0.6h-7.4v-7.5c0-1,0.2-2,0.6-2.9
			c0.8-1.8,2.2-3.2,4-4c0.9-0.4,1.9-0.6,2.9-0.6c1,0,2,0.2,2.9,0.6c0.9,0.4,1.7,0.9,2.4,1.6c0.7,0.7,1.2,1.5,1.6,2.4
			c0.4,0.9,0.6,1.9,0.6,2.9C42.2,72.8,42,73.8,41.5,74.7 M56.2,60.3c-1.5,0.6-2.8,1.5-4,2.7c-1.1,1.1-2,2.5-2.7,3.9
			c-0.7,1.5-1,3.2-1,4.8v12.4h5V71.7c0-1,0.2-2,0.6-2.9c0.8-1.8,2.2-3.2,4-4c0.9-0.4,1.9-0.6,2.9-0.6h2.5v-4.9H61
			C59.3,59.3,57.7,59.7,56.2,60.3 M86,63.1c-1.1-1.1-2.5-2-3.9-2.7c-3.1-1.3-6.5-1.3-9.6,0c-1.5,0.6-2.8,1.5-3.9,2.7
			c-1.1,1.1-2,2.4-2.6,3.9c-1.3,3.1-1.3,6.5,0,9.6c0.6,1.5,1.5,2.8,2.7,4c2.3,2.3,5.5,3.6,8.7,3.6c1.7,0,3.3-0.3,4.8-1
			c3-1.3,5.4-3.7,6.6-6.6c1.3-3.1,1.3-6.5,0-9.6C88.1,65.5,87.2,64.2,86,63.1 M84.2,74.7c-0.7,1.8-2.2,3.3-4,4c-1.9,0.8-4,0.8-5.8,0
			c-1.8-0.7-3.3-2.2-4-4c-0.4-0.9-0.6-1.9-0.6-2.9c0-1,0.2-2,0.6-2.9c0.4-0.9,0.9-1.7,1.6-2.4c0.7-0.7,1.5-1.2,2.4-1.6
			c1.9-0.8,4-0.8,5.8,0c0.9,0.4,1.7,0.9,2.4,1.6c0.7,0.7,1.2,1.5,1.6,2.4c0.4,0.9,0.6,1.9,0.6,2.9C84.8,72.8,84.6,73.8,84.2,74.7
			 M96.2,49.4h-4.9v22.3c0,1.7,0.3,3.3,1,4.8c0.6,1.5,1.5,2.9,2.7,4c1.1,1.1,2.5,2,4,2.7c1.5,0.7,3.1,1,4.8,1h2.4v-5h-2.4
			c-1,0-2-0.2-2.9-0.6c-1.8-0.7-3.3-2.2-4-4c-0.4-0.9-0.6-1.9-0.6-2.9v-2.5h9.9v-4.9h-10L96.2,49.4L96.2,49.4z M155.5,63.1
			c-1.1-1.1-2.5-2-3.9-2.7c-3.1-1.3-6.5-1.3-9.6,0c-1.5,0.6-2.8,1.5-3.9,2.7c-1.1,1.1-2,2.5-2.6,3.9c-0.7,1.5-1,3.2-1,4.8v22.3h4.9
			v-9.9h7.4c1.7,0,3.3-0.3,4.8-1c3-1.3,5.4-3.7,6.6-6.6c1.3-3.1,1.3-6.5,0-9.6C157.6,65.5,156.7,64.2,155.5,63.1 M153.7,74.7
			c-0.7,1.8-2.2,3.3-4,4c-0.9,0.4-1.9,0.6-2.9,0.6h-7.4v-7.5c0-1,0.2-2,0.6-2.9c0.8-1.8,2.2-3.2,4-4c0.9-0.4,1.9-0.6,2.9-0.6
			c1,0,2,0.2,2.9,0.6c0.9,0.4,1.7,0.9,2.4,1.6c0.7,0.7,1.2,1.5,1.6,2.4C154.5,70.7,154.5,72.8,153.7,74.7 M168.4,60.3
			c-1.5,0.6-2.8,1.5-4,2.7c-1.1,1.1-2,2.5-2.7,3.9c-0.7,1.5-1,3.2-1,4.8v12.5h5V71.7c0-1,0.2-2,0.6-2.9c0.8-1.8,2.2-3.2,4-4
			c0.9-0.4,1.9-0.6,2.9-0.6h2.5v-4.9h-2.5C171.6,59.3,169.9,59.7,168.4,60.3 M177.2,84.1h4.8V59.3h-4.9L177.2,84.1z M204.8,63
			c-1.1-1.1-2.5-2-3.9-2.7c-3.1-1.3-6.5-1.3-9.6,0c-1.5,0.6-2.8,1.5-3.9,2.7c-1.1,1.1-2,2.5-2.6,3.9c-0.7,1.5-1,3.2-1,4.8v12.4h4.9
			V71.8c0-1,0.2-2,0.6-2.9c0.8-1.8,2.2-3.2,4-4c0.9-0.4,1.9-0.6,2.9-0.6c1,0,2,0.2,2.9,0.6c0.9,0.4,1.7,0.9,2.4,1.6
			c0.7,0.7,1.2,1.5,1.6,2.4c0.4,0.9,0.6,1.9,0.6,2.9v12.4h4.9V71.8c0-1.7-0.3-3.3-1-4.8C206.8,65.5,205.9,64.1,204.8,63 M224.9,69.2
			v-4.9H215V49.4h-4.9v22.3c0,1.7,0.3,3.3,1,4.8c1.3,3,3.6,5.4,6.6,6.6c1.5,0.7,3.1,1,4.8,1h2.4v-4.9h-2.4c-1,0-2-0.2-2.9-0.6
			c-1.8-0.7-3.3-2.2-4-4c-0.4-0.9-0.6-1.9-0.6-2.9v-2.5L224.9,69.2z"/>
		<path class="st0" d="M119.8,78.1l-4.7-2.7h-0.5c-2.1,0-4.1-0.6-5.9-1.7c0,0.1,0,0.2,0,0.3v0.1c0,0.1,0,0.2,0.1,0.3v0.1
			c0,0,0,0,0,0.1v0.1c0,0.1,0,0.2,0.1,0.3l0,0c0,0,0,0,0,0.1l0,0l0.1,0.3v0.1l0.1,0.4v0.1c0.1,0.2,0.1,0.3,0.2,0.4
			c0.2,0.5,0.4,0.9,0.7,1.4l0.2,0.4l0,0l0.1,0.2l0.1,0.1v0.1l0,0l0.2,0.3l0.1,0.1l0.2,0.3l0.2,0.2l0,0l0.1,0.1
			c0.4,0.4,0.8,0.8,1.2,1.2l0.1,0.1l0.2,0.2l0.2,0.2l0.1,0.1l0.3,0.3l0,0c0.3,0.2,0.6,0.4,0.8,0.5l0.4,0.2l0,0l0,0
			c2-0.9,3.8-2.4,4.8-4.3 M131.9,71.5c0-0.1,0-0.3,0-0.4V71c0,0,0-0.1,0-0.2v-0.2c0-0.1,0-0.3,0-0.4v-0.1c0-0.1,0-0.3-0.1-0.4l0,0
			v-0.2c-1-0.7-2.2-1.1-3.4-1.1l0,0c-0.9,0-1.7,0.2-2.6,0.4v5.5c1.4,1.9,2.1,4.2,2.1,6.6l0,0l0.1-0.1l0.1-0.1
			c0.4-0.4,0.8-0.8,1.2-1.2l0.1-0.1l0.2-0.2l0.2-0.3L130,79c0.1-0.1,0.2-0.2,0.3-0.3l0,0c0.2-0.3,0.4-0.6,0.5-0.9l0.2-0.4l0,0
			c0-0.1,0.1-0.1,0.1-0.2v-0.1c0.2-0.4,0.4-0.9,0.6-1.3c0.1-0.2,0.1-0.4,0.2-0.6l0.1-0.3l0,0l0,0v-0.1c0-0.2,0.1-0.3,0.1-0.4v-0.1
			c0-0.1,0-0.3,0.1-0.4v-0.1c0-0.2,0-0.3,0.1-0.4l0,0c0-0.1,0-0.3,0-0.4V73v-0.4v-0.1c0-0.2,0-0.3,0-0.4 M120.7,78.5
			c-1,1.9-2.6,3.5-4.4,4.5l0.3,0.1c0.2,0.1,0.4,0.1,0.6,0.2l0,0l0.3,0.1h0.1h0.1l0.3,0.1h0.1l0.4,0.1h0.1l0.4,0.1l0,0h0.4h0.1h0.4
			h1.5h0.4h0.1h0.4h0.1l0.4-0.1h0.1l0.3-0.1h0.1h0.1l0.3-0.1l0,0l0,0l0,0l0.3-0.1h0.1l0.4-0.1h0.1c0.6-0.2,1.2-0.5,1.8-0.9l0.4-0.2
			l0,0l0,0c0.3-2.2-0.2-4.4-1.3-6.3L120.7,78.5z M119.8,65.7c0.4-2.1,1.5-3.9,3.2-5.2h-0.2h-0.1l-0.4-0.1h-0.1L122,60l0,0l-0.4,0
			h-0.1H121h-1.4h-0.4H119h-0.3l0,0l-0.4,0.1h-0.1l-0.3,0.1h-0.1h-0.1l-0.3,0.1l0,0h-0.1l0,0l-0.3,0.1h-0.1l-0.4,0.1h-0.1l-0.4,0.2
			c-0.5,0.2-0.9,0.4-1.4,0.7l-0.4,0.2l0,0l0,0c-0.3,2.2,0.2,4.4,1.3,6.3L119.8,65.7z M120.8,65.7l4.7,2.7c1-0.3,2-0.5,3-0.5
			c1.1,0,2.1,0.2,3.1,0.7c0-0.1,0-0.1,0-0.2v-0.1l-0.1-0.4v-0.1c-0.1-0.2-0.1-0.3-0.2-0.4l0,0c-0.2-0.5-0.4-0.9-0.7-1.4
			c-0.1-0.1-0.1-0.3-0.2-0.4l0,0c0-0.1-0.1-0.1-0.1-0.2l-0.1-0.1l-0.1-0.1l-0.2-0.3l-0.1-0.1c-0.1-0.1-0.1-0.2-0.2-0.3
			s-0.1-0.1-0.1-0.2l-0.1-0.1l-0.1-0.1c-0.3-0.3-0.6-0.6-0.8-0.9l-0.4-0.3l-0.1-0.1l-0.2-0.2l-0.3-0.2l-0.1-0.1l-0.3-0.3l0,0
			c-0.3-0.2-0.6-0.4-0.9-0.5l-0.4-0.2l0,0l-0.2-0.1l0,0c-0.4-0.2-0.8-0.4-1.2-0.5c-2.5,1-3.3,3.8-3.6,4.8 M114.7,74.7V69
			c-1.2-1.9-1.8-4.2-1.7-6.4l0,0h-0.1l-0.1,0.1c-0.5,0.4-0.9,0.8-1.3,1.3l-0.1,0.1l-0.2,0.2l-0.2,0.2l-0.1,0.1l-0.3,0.3l0,0
			c-0.2,0.3-0.4,0.6-0.5,0.8l-0.2,0.4l0,0c0,0.1-0.1,0.1-0.1,0.2l0,0c-0.2,0.4-0.4,0.9-0.6,1.3c-0.1,0.2-0.1,0.4-0.2,0.6l0,0
			c0,0.1-0.1,0.2-0.1,0.3l0,0c0,0,0,0,0,0.1l0,0c0,0.1-0.1,0.2-0.1,0.3v0.1c0,0.2-0.1,0.3-0.1,0.4v0.1l-0.1,0.4l0,0
			c0,0.1,0,0.3,0,0.4v0.1V71v0.1c0,0.2,0,0.3,0,0.4l0,0c0,0.1,0,0.2,0,0.4V72c1.7,1.3,3.8,2,6,2h0.1"/>
		<path class="st0" d="M124.7,90.1h-8.6c-0.5,0-0.9,0.4-0.9,0.9s0.4,0.9,0.9,0.9h8.6c0.5,0,0.9-0.4,0.9-0.9l0,0
			C125.6,90.5,125.2,90.1,124.7,90.1C124.7,90.1,124.7,90.1,124.7,90.1"/>
		<path class="st0" d="M124.7,84.9h-8.6c-0.5,0-0.9,0.4-0.9,0.9s0.4,0.9,0.9,0.9h8.6c0.5,0,0.9-0.4,0.9-0.9S125.2,84.9,124.7,84.9"
			/>
		<path class="st0" d="M124.7,87.5h-8.6c-0.5,0-0.9,0.4-0.9,0.9s0.4,0.9,0.9,0.9h8.6c0.5,0,0.9-0.4,0.9-0.9S125.2,87.5,124.7,87.5"
			/>
		<path class="st0" d="M122.4,92.7h-4.1c-0.5,0-0.9,0.4-0.9,0.9s0.4,0.9,0.9,0.9h4.1c0.5,0,0.9-0.4,0.9-0.9l0,0
			C123.3,93.1,122.9,92.7,122.4,92.7C122.4,92.7,122.4,92.7,122.4,92.7"/>
	</g>
</g>
</svg>
